<svg id="Layer_1" data-name="Layer 1" xmlns="http://www.w3.org/2000/svg" viewBox="0 0 480.58 53.53"><title>qubic_foundation</title>
<path d="M203.35,15.77h1.79v-.71c0-7.19,4-11.68,10.84-11.68h4v6.88h-3c-3.17,0-4.61,1.44-4.61,4.8v.71H219v6.89h-6.71V42h-7.19V22.66h-1.79Z" fill="#000000"/>
<path d="M237.36,12.36a14.85,14.85,0,0,1,15.1,15.09,15.13,15.13,0,0,1-30.25,0A14.82,14.82,0,0,1,237.36,12.36Zm0,23.12a7.73,7.73,0,0,0,7.91-8.09,8,8,0,1,0-15.93,0A7.75,7.75,0,0,0,237.36,35.48Z" fill="#000000"/>
<path d="M256.11,12.66h7.13V28.47c0,5,2.15,7.13,6.11,7.13,5.09,0,8-4.37,8-4.37V12.66h7.19V42h-6.29l-.78-3.9a12.32,12.32,0,0,1-9.64,4.38c-6.83,0-11.74-5.22-11.74-12.28Z" fill="#000000"/>
<path d="M316.9,42h-7.13V26.44c0-5-2.16-7.19-6.11-7.19a10.54,10.54,0,0,0-8,4.19V42h-7.19V12.66H295l.6,3.89a12.14,12.14,0,0,1,9.52-4.19c6.83,0,11.74,5.21,11.74,12.28Z" fill="#000000"/>
<path d="M344,3.38h7.18V42h-6.58l-.54-3.36a12.73,12.73,0,0,1-9.17,3.84c-8,0-14.37-6.29-14.37-15s6.35-15.09,14.37-15.09A12.81,12.81,0,0,1,344,16.13ZM335.7,19.25a7.87,7.87,0,0,0-8.14,8.2,7.86,7.86,0,0,0,8.14,8.15c4.61,0,8.33-3.18,8.33-8.15A8,8,0,0,0,335.7,19.25Z" fill="#000000"/>
<path d="M378.28,12.66h7.19V42h-6.59l-.54-3.36a12.71,12.71,0,0,1-9.16,3.84c-8,0-14.37-6.29-14.37-15s6.34-15.09,14.37-15.09a12.79,12.79,0,0,1,9.1,3.77ZM370,19.25a7.88,7.88,0,0,0-8.15,8.2A7.87,7.87,0,0,0,370,35.6c4.61,0,8.32-3.18,8.32-8.15A8,8,0,0,0,370,19.25Z" fill="#000000"/>
<path d="M389.06,19.55V12.66h1.8l.6-6.41h6.59v6.41H403v6.89h-4.91v11.2c0,3.17,1.08,4.37,4,4.37h1.2V42H401.1c-6.59,0-10.24-4-10.24-11.26V19.55Z" fill="#000000"/>
<path d="M410.68,3.8a4,4,0,0,1,0,7.9,3.95,3.95,0,1,1,0-7.9Zm-3.59,8.86h7.19V42h-7.19Z" fill="#000000"/>
<path d="M433.44,12.36a14.84,14.84,0,0,1,15.09,15.09,15.12,15.12,0,0,1-30.24,0A14.82,14.82,0,0,1,433.44,12.36Zm0,23.12a7.73,7.73,0,0,0,7.91-8.09,8,8,0,1,0-15.93,0A7.75,7.75,0,0,0,433.44,35.48Z" fill="#000000"/>
<path d="M480.58,42h-7.13V26.44c0-5-2.16-7.19-6.11-7.19a10.57,10.57,0,0,0-8,4.19V42h-7.18V12.66h6.59l.59,3.89a12.16,12.16,0,0,1,9.53-4.19c6.82,0,11.74,5.21,11.74,12.28Z" fill="#000000"/>
<path d="M11.61,0H1.66A1.66,1.66,0,0,0,0,1.66V38.15a1.66,1.66,0,0,0,1.66,1.66h10a1.66,1.66,0,0,0,1.66-1.66V1.66A1.66,1.66,0,0,0,11.61,0Zm17.7,0h-10a1.66,1.66,0,0,0-1.66,1.66V51.42a1.66,1.66,0,0,0,1.66,1.66h10A1.66,1.66,0,0,0,31,51.42V1.66A1.66,1.66,0,0,0,29.31,0ZM75.23,53.53V38.17h-.92a8.85,8.85,0,0,1-1.84,2.24,10,10,0,0,1-3.11,1.73,13.23,13.23,0,0,1-4.6.69,12.87,12.87,0,0,1-6.55-1.73,12.57,12.57,0,0,1-4.78-4.94,16.38,16.38,0,0,1-1.78-7.88v-.86a16,16,0,0,1,1.78-7.82,13,13,0,0,1,4.83-5,12.8,12.8,0,0,1,6.5-1.72,11.26,11.26,0,0,1,6.33,1.49,10.32,10.32,0,0,1,3.33,3.4h.92V13.67h5.81V53.53Zm-8.8-15.88a8.62,8.62,0,0,0,6.38-2.47c1.65-1.65,2.48-4,2.48-7.07v-.52a9.4,9.4,0,0,0-2.53-7,8.61,8.61,0,0,0-6.33-2.47,8.74,8.74,0,0,0-6.33,2.47,9.53,9.53,0,0,0-2.47,7v.52c0,3.07.83,5.42,2.47,7.07A8.7,8.7,0,0,0,66.43,37.65Zm30.28,4.89A11.44,11.44,0,0,1,91,41.1,10.19,10.19,0,0,1,87,37a13.14,13.14,0,0,1-1.43-6.32v-17h5.92V30.29c0,2.46.62,4.28,1.84,5.47a7.19,7.19,0,0,0,5.12,1.72,7.47,7.47,0,0,0,5.81-2.41q2.23-2.48,2.24-7.08V13.67h5.92V42H106.6V37.77h-.92a9,9,0,0,1-2.87,3.28A10.42,10.42,0,0,1,96.71,42.54Zm36.82.29a11.44,11.44,0,0,1-6.38-1.5A10.68,10.68,0,0,1,123.87,38H123v4h-5.81V1.77h5.93V17.53H124a9.48,9.48,0,0,1,1.84-2.19,8.63,8.63,0,0,1,3-1.78,13.65,13.65,0,0,1,4.65-.69,12.88,12.88,0,0,1,6.56,1.72,12.54,12.54,0,0,1,4.77,5,16.1,16.1,0,0,1,1.79,7.82v.86a15.83,15.83,0,0,1-1.85,7.88,12.68,12.68,0,0,1-11.27,6.67Zm-1.72-5.18a8.53,8.53,0,0,0,6.32-2.47c1.69-1.65,2.53-4,2.53-7.07v-.52q0-4.55-2.47-7a9.41,9.41,0,0,0-12.71,0Q123,23,123,27.59v.52c0,3.07.82,5.42,2.47,7.07A8.7,8.7,0,0,0,131.81,37.65ZM150,42V13.67h5.92V42Zm3-32.2A4.19,4.19,0,0,1,150,8.73a4,4,0,0,1-1.15-2.94A3.77,3.77,0,0,1,150,2.92,4.09,4.09,0,0,1,153,1.77a3.94,3.94,0,0,1,2.93,1.15A3.77,3.77,0,0,1,157,5.79a4,4,0,0,1-1.15,2.94A4.07,4.07,0,0,1,153,9.82Zm20.86,33a15.87,15.87,0,0,1-7.41-1.73,13.06,13.06,0,0,1-5.24-5,15.5,15.5,0,0,1-1.89-7.88v-.74a15.24,15.24,0,0,1,1.89-7.83,13.13,13.13,0,0,1,5.24-5,15.43,15.43,0,0,1,7.41-1.78,15,15,0,0,1,7,1.49,12.63,12.63,0,0,1,4.6,4,13.16,13.16,0,0,1,2.3,5.46L181.93,25a9.6,9.6,0,0,0-1.21-3.45,6.68,6.68,0,0,0-2.59-2.47,8.65,8.65,0,0,0-4.2-.92,8.88,8.88,0,0,0-4.49,1.15,7.9,7.9,0,0,0-3.1,3.22,10.26,10.26,0,0,0-1.15,5.06v.52a10.61,10.61,0,0,0,1.15,5.12,8,8,0,0,0,3.1,3.22,9.26,9.26,0,0,0,4.49,1.09,7.82,7.82,0,0,0,5.69-1.9,8.94,8.94,0,0,0,2.48-4.94L187.85,32a15,15,0,0,1-2.48,5.4,12.55,12.55,0,0,1-4.6,4,15.35,15.35,0,0,1-7,1.44Z"/>
</svg>